<?xml version="1.0" encoding="UTF-8"?>
<svg version="1.1" viewBox="0 0 900 900" width="225" height="225" xmlns="http://www.w3.org/2000/svg">
<path transform="translate(0)" d="m0 0h900v900h-900z" fill="#FDFDFD"/>
<path transform="translate(689,372)" d="m0 0h14l14 3 14 7 10 9 7 9 6 13 3 13v8l-1 1h-104l2 15 7 14 7 8 10 6 13 3h10l15-4 11-7 9-10 4-6 5 1 8 5-3 7-7 9-8 8-12 7-14 4-16 1-17-3-12-5-11-9-6-8-7-12-4-13-1-7v-11l4-16 7-14 9-11 11-8 12-5z" fill="#8C1612"/>
<path transform="translate(117,373)" d="m0 0h26l13 4 14 9 9 10 7 12 5 16 1 10-1 1h-106l3 16 6 12 9 10 11 6 11 2h10l16-4 11-7 9-11 3-5 7 2 6 4-2 6-12 14-11 8-12 5-10 2h-19l-15-4-11-6-10-9-9-14-5-14-1-4v-19l4-14 7-14 9-10 7-6 13-6z" fill="#1D3064"/>
<path transform="translate(273,386)" d="m0 0 14 1 13 5 10 8 8 11 4 11 1 4v16l-3 12-6 10-9 9-12 6-11 3h-11l-12-3-10-5-10-10-7-13-2-7-1-12 2-12 7-14 9-10 10-6 9-3z" fill="#FEFEFE"/>
<path transform="translate(322,330)" d="m0 0h15v162l-1 1-14-1v-16l1-2-5 3-9 8-16 8-10 2h-16l-15-4-10-5-10-9-7-8-5-9-4-10-1-5v-23l4-13 8-14 10-10 13-8 13-4 16-1 13 2 14 7 11 9 5 5zm-49 56-10 2-12 5-10 9-7 11-4 11-1 12 2 11 4 10 6 9 8 8 12 6 10 2h11l14-4 10-6 8-8 6-10 3-12v-16l-4-13-7-11-9-8-12-6-12-2z" fill="#1D3065"/>
<path transform="translate(559,372)" d="m0 0h12l12 3 11 7 8 10 4 10 2 10 1 13v68h-15l-1-69-2-17-5-10-8-7-9-3h-13l-9 3-10 6-7 8-5 10-2 7-1 15-1 57h-15v-117l1-1h13l1 1v18l16-14 12-6z" fill="#8D1612"/>
<path transform="translate(369,375)" d="m0 0h15l1 1 1 74 2 10 5 9 7 6 10 4 6 1h9l10-2 9-5 7-7 4-11 1-11 1-69h15v70l-2 15-4 12-7 9-8 7-11 5-9 2h-20l-12-3-11-6-9-9-5-10-4-16-1-11z" fill="#1D3064"/>
<path transform="translate(799,331)" d="m0 0 15 1v43h23l1 1v9l-1 3-22 1-1 96-1 8h-14l-1-1v-103h-13l-7-1v-13l19-1 1-42z" fill="#8A1613"/>
<path transform="translate(125,386)" d="m0 0h10l13 3 11 6 8 8 8 16v2l-2 1h-86l1-7 5-9 9-10 9-6 9-3z" fill="#FEFEFE"/>
<path transform="translate(692,386)" d="m0 0 15 1 12 5 8 6 8 9 5 10v5h-87l1-7 7-12 9-9 12-6z" fill="#FEFEFE"/>
<path transform="translate(663,513)" d="m0 0h3l1 19v28l-4-1-1-2-5 3-9 1-6-5-3-8v-7l3-8 5-4 7-1 9 4z" fill="#331E40"/>
<path transform="translate(686,528)" d="m0 0h8l5 4 1 4v23l-17 2-5-4-1-2v-8l7-4 11-1v-8l-1-1h-11l-5 1 2-4z" fill="#331E40"/>
<path transform="translate(761,532)" d="m0 0h8l5 4 1 2v12l-4 6-4 2-7-1-5-6-1-10 3-6z" fill="#FEFEFE"/>
<path transform="translate(538,532)" d="m0 0h9l5 6 1 9-4 8-5 3-6-1-5-5-2-9 2-6z" fill="#FEFEFE"/>
<path transform="translate(649,532)" d="m0 0h7l6 5v14l-5 5-2 1h-6l-5-6-1-11 4-7z" fill="#FEFEFE"/>
<path transform="translate(761,528)" d="m0 0h8l7 4 3 5v14l-6 8-5 2h-8l-6-4-3-5-1-10 3-9 5-4zm0 4-5 4-2 5 1 10 5 6 7 1 5-3 3-5v-12l-4-5-2-1z" fill="#331E40"/>
<path transform="translate(539,528)" d="m0 0h7l6 3 3 3 1 3v14l-4 6-4 3-3 1h-7l-6-3-4-6-1-4v-7l3-7 6-5zm-1 4-5 5-2 6 2 9 5 5 6 1 6-4 3-7-1-9-5-6z" fill="#331E40"/>
<path transform="translate(604,528)" d="m0 0h3l1 5 7-4 1-1h6l5 3 2 5 1 22-1 3-4-1-1-22-2-5h-7l-5 3-1 6v18l-5-1z" fill="#321E40"/>
<path transform="translate(568,528)" d="m0 0 3 1v11l1 12 1 4h8l5-3 1-3 1-22h3l1 7v25l-4-1-1-3-3 1v2l-5 2-7-1-4-4-1-2v-25z" fill="#331E40"/>
<path transform="translate(789,529)" d="m0 0 4 1v2l6-3h11l4 5 1 6v19l-4 1-1-22-3-5h-8l-4 2-1 26-4-1z" fill="#331E40"/>
<path transform="translate(82,436)" d="m0 0h2l5 18 5 9 9 10 11 6 11 2h10l16-4 10-6 1 3-5 2-1 2-9 4-19 2-13-1-3-1v-2l-7-1-6-5-10-10-6-11-1-9 1 4 1-1-2-4-1-6z" fill="#321E40"/>
<path transform="translate(117,373)" d="m0 0h26l13 4 14 9 9 10 7 12 4 12-1 3-7-13v-3h-2l-6-11v-2l-4-2v-2l-4-2-8-6-11-5-8-2h-17l-11 2-1 1h-5l2-2z" fill="#321E40"/>
<path transform="translate(520,513)" d="m0 0 5 1v3h-9l-1 10-1 2h10l-1 3-7 1-1 27h-4l-1-3 1-24-6-1v-3l6-1 1-11 3-3z" fill="#331E40"/>
<path transform="translate(714,520)" d="m0 0h4l-1 10 2-1h8l-1 3h-7l-1 2v12l1 10 8 1-1 3h-9l-3-4-2-24-5-1 3-3 4 1-1-8z" fill="#331E40"/>
<path transform="translate(230,444)" d="m0 0 2 3 4 10 6 9 7 7 12 6 12 3-1 2-11-1-12-6-4-3v-2l-4-2-5-6-5-8-1-4z" fill="#331E40"/>
<path transform="translate(694,544)" d="m0 0 3 3-1 7-5 3h-8l-3-4 1-4 4-3z" fill="#FEFEFE"/>
<path transform="translate(73,453)" d="m0 0 4 4 10 16v2h2l3 4 5 2 1 2 6 3 5 3 8 2 1 3-12-3-11-6-10-9-9-14z" fill="#321E40"/>
<path transform="translate(736,528)" d="m0 0 4 1v31h-4z" fill="#331E40"/>
<path transform="translate(271,372)" d="m0 0 17 1 11 4 11 7 2 3-16-8v-2l-12-2h-18l-12 3-6 1 4-3 11-3z" fill="#331E40"/>
<path transform="translate(375,375)" d="m0 0h9l1 1v67h-1l-1-63-3-2-8-1z" fill="#331E40"/>
<path transform="translate(148,388)" d="m0 0 12 6 9 8 2 6h3l2 9v2h-2l-8-16-7-7-11-6z" fill="#321E40"/>
<path transform="translate(391,468)" d="m0 0 7 6 8 4 10 2h9l9-1-1 2-7 1h-18l-8-4-5-3v-2l-3-1z" fill="#331E40"/>
<path transform="translate(219,457)" d="m0 0 4 2 3 7 7 9 9 8 9 5-1 2-8-4-10-9-7-8-5-9z" fill="#321E40"/>
<path transform="translate(304,394)" d="m0 0 6 4 7 8 1 5-4-5-7-8-3-2z" fill="#321E41"/>
<path transform="translate(296,376)" d="m0 0 10 5 6 5h-3l-8-5-5-2z" fill="#311F42"/>
<path transform="translate(94,383)" d="m0 0 2 1-5 6-7 6v-3z" fill="#331E40"/>
</svg>
